<svg width="24" height="24" viewBox="0 0 24 24" fill="none" xmlns="http://www.w3.org/2000/svg">
<path d="M8.88898 6.04475C6.06106 8.97064 6.67816 13.8263 9.9175 15.9772C10.0242 16.0481 10.1662 16.0341 10.2579 15.9445C10.9399 15.2782 11.5168 14.6327 12.022 13.8119C12.0992 13.6863 12.0512 13.5233 11.9215 13.4531C11.4274 13.1854 10.9358 12.6834 10.659 12.1532L10.6586 12.1534C10.3271 11.4932 10.2142 10.7532 10.3897 9.98885C10.3899 9.98889 10.3901 9.98894 10.3903 9.98894C10.5923 9.01041 11.6428 8.10016 12.4451 7.25833C12.4435 7.25776 12.4418 7.25716 12.4401 7.25659L15.4463 4.18838C16.6443 2.96566 18.6149 2.95557 19.8253 4.16601C21.048 5.36396 21.0682 7.34448 19.8702 8.56715L18.0494 10.4396C17.9651 10.5263 17.9377 10.6527 17.9772 10.767C18.3964 11.9828 18.4996 13.6971 18.2186 14.9922C18.2107 15.0285 18.2555 15.0522 18.2814 15.0257L22.1568 11.0703C24.6325 8.54356 24.6115 4.42966 22.1101 1.92832C19.5574 -0.624372 15.4018 -0.603128 12.8753 1.97545L8.9045 6.02815C8.89925 6.03369 8.89428 6.03931 8.88898 6.04475Z" fill="white"/>
<path d="M16.134 16.5344C16.1339 16.5345 16.1338 16.5347 16.1338 16.5348C16.1363 16.5338 16.1386 16.5328 16.1411 16.5317C16.932 15.0855 17.0877 13.4268 16.717 11.8099L16.7153 11.8116L16.7135 11.8109C16.3615 10.3707 15.3958 8.94068 14.0842 8.0602C13.9714 7.98447 13.7911 7.99324 13.6855 8.07868C13.0211 8.61587 12.3708 9.30473 11.9417 10.1838C11.8743 10.3218 11.9248 10.4876 12.0576 10.5647C12.5556 10.8538 13.0053 11.2771 13.3064 11.839L13.3069 11.8387C13.5416 12.2357 13.7728 12.9889 13.623 13.7983C13.6229 13.7983 13.6228 13.7983 13.6227 13.7983C13.4829 14.8713 12.3994 15.8555 11.538 16.7424L11.5384 16.7429C10.8827 17.4134 9.21588 19.1126 8.54846 19.7945C7.3505 21.0171 5.36999 21.0374 4.14732 19.8394C2.92465 18.6414 2.90444 16.6609 4.10239 15.4383L5.92866 13.5602C6.01144 13.475 6.03957 13.3513 6.00276 13.2385C5.59725 11.9943 5.48615 10.3186 5.74211 9.0249C5.74924 8.98884 5.70488 8.96581 5.67913 8.99207L1.86203 12.888C-0.639023 15.4406 -0.617826 19.5968 1.90921 22.1237C4.46176 24.6247 8.59643 24.5825 11.0974 22.0299C11.9662 21.058 15.6855 17.6145 16.134 16.5344Z" fill="white"/>
</svg>
