<svg width="27" height="27" viewBox="0 0 27 27" fill="none" xmlns="http://www.w3.org/2000/svg">
<path d="M0 27V18.0352H8.96484V27H0ZM6.85547 20.1445H2.10938V24.8906H6.85547V20.1445Z" fill="white"/>
<path d="M5.53711 23.5723H3.42773V21.4629H5.53711V23.5723Z" fill="white"/>
<path d="M18.0352 27V18.0352H27V27H18.0352ZM24.8906 20.1445H20.1445V24.8906H24.8906V20.1445Z" fill="white"/>
<path d="M23.5723 23.5723H21.4629V21.4629H23.5723V23.5723Z" fill="white"/>
<path d="M0 8.96484V0H8.96484V8.96484H0ZM6.85547 2.10938H2.10938V6.85547H6.85547V2.10938Z" fill="white"/>
<path d="M5.53711 5.53711H3.42773V3.42773H5.53711V5.53711Z" fill="white"/>
<path d="M4.21875 16.6113H2.10938V14.502H4.21875V16.6113Z" fill="white"/>
<path d="M6.32812 12.3926V14.502H4.21875V12.3926H6.27539V10.2832H8.38477V12.3926H6.32812Z" fill="white"/>
<path d="M16.875 22.9395H14.7656V20.8301H16.875V22.9395Z" fill="white"/>
<path d="M12.6562 24.8906H10.5469V20.8301H12.6562V24.8906Z" fill="white"/>
<path d="M14.7656 27H12.6562V24.8906H14.7656V27Z" fill="white"/>
<path d="M12.6562 20.8301V18.7207H10.5469V16.6113H14.7656V20.8301H12.6562Z" fill="white"/>
<path d="M14.7656 8.2793V10.3359H12.6562V14.502H10.5469V10.2832H12.6562V8.22656H14.7656V6.16992H18.9844V8.2793H14.7656Z" fill="white"/>
<path d="M16.875 16.6113H14.7656V12.3926H16.875V16.6113Z" fill="white"/>
<path d="M24.8906 14.5547V16.6113H21.041V14.502H18.9844V12.3926H21.0938V10.3359H27V14.5547H24.8906ZM24.8906 12.4453H21.0938V14.502H24.8906V12.4453Z" fill="white"/>
<path d="M27 8.2793H24.8906V4.06055H27V8.2793Z" fill="white"/>
<path d="M18.9844 12.3926H16.875V10.2832H18.9844V12.3926Z" fill="white"/>
<path d="M21.0938 6.16992H18.9844V4.06055H21.0938V6.16992Z" fill="white"/>
<path d="M23.2031 8.2793H21.0938V6.16992H23.2031V8.2793Z" fill="white"/>
<path d="M21.0938 4.06055V0H23.2031V1.95117H24.8906V4.06055H21.0938Z" fill="white"/>
<path d="M12.6562 8.22656H10.5469V4.21875H12.6562V8.22656Z" fill="white"/>
<path d="M16.875 2.10938V4.21875H12.6562V0H14.7656V2.10938H16.8223V0H18.9316V2.10938H16.875Z" fill="white"/>
<path d="M10.5469 16.6113H6.32812V14.502H10.5469V16.6113Z" fill="white"/>
<path d="M2.10938 14.502H0V10.2832H2.10938V14.502Z" fill="white"/>
</svg>
