<svg width="50" height="50" viewBox="0 0 50 50" fill="none" xmlns="http://www.w3.org/2000/svg">
<rect width="50" height="50" rx="8" fill="#37F0D3"/>
<path d="M25 18.9043C18.5639 18.9043 13.5732 25.9919 13.5732 32.089C13.5732 39.1801 20.0952 39.9999 25 39.9999C29.9048 39.9999 36.4268 39.1801 36.4268 32.089C36.4268 25.9919 31.4361 18.9043 25 18.9043ZM25.903 33.6881C25.8951 33.691 25.8869 33.6897 25.879 33.6924V34.7259C25.879 35.2118 25.4858 35.6049 25 35.6049C24.5142 35.6049 24.121 35.2117 24.121 34.7259V33.6863C23.5416 33.4909 22.9865 33.1199 22.5125 32.5551C22.2 32.1833 22.2481 31.6289 22.6206 31.3164C22.9915 31.004 23.5459 31.0512 23.8584 31.4237C25.5915 33.4937 26.7614 30.331 25 30.331C23.546 30.331 22.3631 29.1481 22.3631 27.694C22.3631 26.6422 22.9653 25.6392 24.1211 25.2278V24.178C24.1211 23.6922 24.5142 23.2991 25 23.2991C25.4859 23.2991 25.879 23.6922 25.879 24.178V25.2307C26.3341 25.3841 26.7778 25.6276 27.1735 26.0107C27.522 26.3488 27.5323 26.9051 27.1941 27.2536C26.8559 27.603 26.2997 27.6124 25.9511 27.2742C24.3342 25.7122 23.2421 28.573 25.0001 28.573C26.4542 28.573 27.6371 29.7559 27.6371 31.2099C27.6369 32.3139 26.9399 33.3105 25.903 33.6881Z" fill="#0F1B35"/>
<path d="M30.0129 10.7076C26.7682 9.76347 23.2317 9.76347 19.987 10.7076C19.4425 10.8652 19.1826 11.4974 19.4754 11.9969L20.8049 14.377C23.1167 13.4572 26.5456 13.3198 29.1947 14.3774L30.5244 11.9969C30.8172 11.4974 30.5573 10.8653 30.0129 10.7076Z" fill="#0F1B35"/>
<path d="M29.0812 16.2932C27.4366 15.1346 22.6122 15.0863 20.9086 16.2986C20.1783 16.8142 19.7894 17.6242 19.797 18.4704C21.4848 17.5762 23.4639 17.1464 25 17.1464C26.8709 17.1464 28.6235 17.6336 30.2031 18.4704C30.2104 17.6551 29.8481 16.8341 29.0812 16.2932Z" fill="#0F1B35"/>
</svg>
