<svg width="55" height="54" viewBox="0 0 55 54" fill="none" xmlns="http://www.w3.org/2000/svg">
<rect width="55" height="54" rx="8" fill="#FFDC14"/>
<path d="M28 19.3594C23.7868 19.3594 20.3592 22.7871 20.3592 27.0002C20.3592 31.2133 23.7868 34.641 28 34.641C32.2132 34.641 35.6408 31.2133 35.6408 27.0002C35.6408 22.787 32.2132 19.3594 28 19.3594ZM28.5846 29.5759V30.3625H27.5855V29.6113C26.8769 29.5688 26.1895 29.3775 25.7643 29.1153L26.3029 27.8965C26.7705 28.1728 27.3941 28.35 27.9398 28.35C28.4145 28.35 28.5846 28.2508 28.5846 28.0807C28.5846 27.4572 25.8423 27.9602 25.8423 26.1108C25.8423 25.31 26.4233 24.6369 27.5855 24.4739V23.7015H28.5846V24.4597C29.109 24.5094 29.6192 24.644 30.0231 24.8708L29.5199 26.0825C29.031 25.8344 28.5704 25.714 28.1382 25.714C27.6492 25.714 27.4933 25.8557 27.4933 26.0258C27.4933 26.621 30.2356 26.125 30.2356 27.9532C30.2356 28.7185 29.6829 29.3846 28.5846 29.5759Z" fill="black"/>
<path d="M40.9228 25.5874L39.4074 25.7549C39.6908 28.3183 39.084 30.9388 37.6988 33.1336C36.2944 35.3588 34.1442 37.0454 31.6441 37.8829C30.4472 38.2837 29.2177 38.4758 27.9999 38.4757C24.4848 38.4755 21.0734 36.8742 18.8688 34.0755H20.3782V32.5509H16.3019V36.815H17.8265V35.2093C19.2802 36.9794 21.2069 38.3596 23.3943 39.1739C24.8724 39.7242 26.4317 40 27.9889 40C29.3905 40 30.7907 39.7765 32.1283 39.3285C34.9605 38.3798 37.3967 36.4688 38.9879 33.9474C40.5568 31.4616 41.2439 28.4927 40.9228 25.5874Z" fill="black"/>
<path d="M18.2477 20.9617C19.652 18.6929 21.8213 16.9758 24.3561 16.1267C26.8245 15.2999 29.4212 15.3261 31.8657 16.2028C33.7746 16.8875 35.4765 18.076 36.7747 19.6115L35.3218 19.611L35.3213 21.1356L39.4428 21.1369V17.0635H37.9183V18.6035C36.4502 16.8762 34.5313 15.5392 32.3804 14.7678C29.6105 13.7744 26.6682 13.7444 23.8719 14.6811C21.0004 15.6429 18.5427 17.5885 16.9515 20.1593C15.3809 22.6968 14.7255 25.7151 15.1057 28.6584L16.6177 28.463C16.2822 25.8661 16.8611 23.2022 18.2477 20.9617Z" fill="black"/>
</svg>
