<svg width="55" height="54" viewBox="0 0 55 54" fill="none" xmlns="http://www.w3.org/2000/svg">
<rect width="55" height="54" rx="8" fill="#4FF08F"/>
<path d="M40 31.6869C40 30.3015 38.8722 29.1737 37.4877 29.1737C37.4275 29.1737 37.369 29.1843 37.3105 29.1875C37.5592 28.5993 37.6957 27.9444 37.6957 27.2253C37.6957 25.5474 35.5506 21.6985 34.1506 20.4261C33.3836 20.591 32.5678 20.6804 31.722 20.6804C30.8493 20.6804 30.0124 20.5853 29.2243 20.4106C27.8414 21.5279 25.4192 25.4954 25.4192 27.2261C25.4192 27.5178 25.446 27.7957 25.494 28.0606C25.0763 28.0321 24.6514 28.0159 24.2183 28.0159C23.0978 28.0159 22.0188 28.1369 20.9983 28.3604C20.9682 27.9891 20.9471 27.7624 20.9471 27.7624H14.2925C14.2925 27.7624 14.0008 30.1999 14.0008 33.2039C14.0008 36.2078 14.2925 38.6437 14.2925 38.6437H20.9463C20.9463 38.6437 21.0048 38.0075 21.0682 37.1048C22.0586 36.9382 23.0727 37.1999 24.2435 37.9279C25.7288 38.8964 27.5586 39.4725 29.5395 39.4725C31.5481 39.4725 33.2731 38.8802 34.7072 37.884L34.7088 37.8856C34.7259 37.8734 34.7421 37.8612 34.7641 37.8417C35.1703 37.5557 35.5547 37.2397 35.913 36.8927C36.1941 36.6051 36.5752 36.237 37.1464 35.678C39.0648 33.7929 39.3012 33.42 39.3012 33.42C39.3012 33.42 39.2972 33.42 39.2939 33.42C39.7302 32.9707 40 32.3613 40 31.6869ZM30.1132 25.1477C30.1749 24.9982 30.2635 24.8649 30.3724 24.7495C30.4861 24.6317 30.6178 24.535 30.7689 24.4595C30.9216 24.3815 31.0866 24.3311 31.2662 24.3043V23.8679H32.1908V24.3709C32.3273 24.4091 32.45 24.4627 32.5605 24.5277V24.3311H33.486V25.7164H32.5548C32.4801 25.6336 32.4061 25.5596 32.3363 25.4962C32.2648 25.4329 32.19 25.3784 32.112 25.3378C32.0316 25.2972 31.9471 25.2647 31.8528 25.2427C31.7577 25.2208 31.648 25.2094 31.5197 25.2094C31.3344 25.2094 31.1938 25.2541 31.0939 25.341C30.9956 25.4296 30.9452 25.5239 30.9452 25.6254C30.9452 25.9114 31.2532 26.0999 31.8715 26.1934C32.2542 26.2503 32.5589 26.3445 32.7856 26.4729C33.0098 26.6029 33.1829 26.7435 33.3032 26.8962C33.4218 27.0474 33.4982 27.1977 33.5315 27.3455C33.5648 27.4942 33.5819 27.6121 33.5819 27.7039C33.5819 27.8802 33.5469 28.0451 33.4754 28.1946C33.4047 28.3474 33.3088 28.4823 33.1853 28.5944C33.0643 28.709 32.9156 28.8008 32.7482 28.8723C32.5784 28.9422 32.3931 28.9836 32.1949 28.9974V29.4134H31.2702V28.8723C31.2198 28.8503 31.176 28.8292 31.1272 28.8089C31.0801 28.7918 31.0378 28.7691 30.9923 28.7472V28.9503H30.0677V27.5649H30.9923C31.0728 27.6535 31.1483 27.7282 31.2272 27.7932C31.3035 27.8566 31.3815 27.9111 31.4652 27.9501C31.5473 27.9931 31.6367 28.0232 31.735 28.0435C31.8349 28.0614 31.9479 28.0711 32.0762 28.0711C32.2428 28.0711 32.3809 28.0378 32.4923 27.9696C32.6028 27.9013 32.6572 27.8136 32.6572 27.7022C32.6572 27.6104 32.6271 27.53 32.5711 27.4601C32.515 27.3927 32.4411 27.3358 32.3509 27.2854C32.2615 27.2375 32.1632 27.1993 32.0551 27.1709C31.9462 27.1424 31.8398 27.1189 31.7334 27.101C31.3588 27.0441 31.0606 26.9539 30.8363 26.8361C30.6129 26.7175 30.4398 26.5883 30.3179 26.4469C30.1985 26.3055 30.1164 26.1609 30.0799 26.0138C30.0417 25.8676 30.0238 25.7359 30.0238 25.6222C30.0197 25.4572 30.0514 25.298 30.1132 25.1477ZM38.4733 32.6708C38.1369 33.004 36.715 34.4706 36.3282 34.8492C35.3304 35.8283 34.8648 36.2874 34.6471 36.5409L34.6414 36.5368C34.4886 36.6742 34.3286 36.7968 34.1653 36.9171C32.8782 37.7873 31.2751 38.309 29.5387 38.309C27.7853 38.309 26.17 37.7808 24.8781 36.8968H24.87C23.7511 36.2159 22.4405 35.7966 21.1437 35.9242C21.1957 35.0288 21.2372 34.0481 21.2372 33.2055C21.2372 32.033 21.1559 30.5965 21.082 29.4922C22.0676 29.2704 23.1214 29.1461 24.2159 29.1461C27.561 29.1461 30.5211 30.252 32.3338 31.9851C32.5475 32.2231 32.6824 32.536 32.6824 32.8805C32.6824 33.6231 32.0779 34.2276 31.3352 34.2276C31.3092 34.2276 31.2824 34.2195 31.2515 34.2179L31.2483 34.2325C30.5552 34.2089 29.4705 33.9181 27.639 33.2169L27.223 34.3089C29.1593 35.045 30.4349 35.3782 31.3393 35.4009V35.3928C32.4728 35.3912 33.4291 34.6339 33.7403 33.6044V33.6061C34.1319 32.9552 35.5985 31.5999 36.4314 30.8589V30.8605C36.4411 30.8492 36.4484 30.8435 36.4549 30.837C36.6085 30.7005 36.7426 30.5835 36.8376 30.5014C37.014 30.3893 37.196 30.343 37.4869 30.343C38.2279 30.343 38.8324 30.9475 38.8324 31.6901C38.834 32.0598 38.6691 32.4092 38.4733 32.6708Z" fill="black"/>
<path d="M29.542 19.5854C29.542 19.5854 30.6714 19.8535 31.7781 19.8535C32.8839 19.8535 33.6119 19.6967 33.6119 19.6967C34.2546 19.3806 35.6993 16.0484 34.8518 14.8735C33.9044 13.5629 32.3208 16.4116 31.5895 16.1191C30.8615 15.8274 29.308 14.308 28.2834 14.9272C27.3929 15.4659 28.8416 19.0645 29.542 19.5854Z" fill="black"/>
</svg>
