<svg width="51" height="51" viewBox="0 0 51 51" fill="none" xmlns="http://www.w3.org/2000/svg">
<path d="M38.4492 22.9102C39.5495 22.9102 40.4414 22.0182 40.4414 20.918C40.4414 19.8177 39.5495 18.9258 38.4492 18.9258C37.349 18.9258 36.457 19.8177 36.457 20.918C36.457 22.0182 37.349 22.9102 38.4492 22.9102Z" fill="white"/>
<path d="M43.0312 3.98438H40.4414V1.99219C40.4414 0.891902 39.5495 0 38.4492 0C37.3489 0 36.457 0.891902 36.457 1.99219V3.98438H27.3926V1.99219C27.3926 0.891902 26.5007 0 25.4004 0C24.3001 0 23.4082 0.891902 23.4082 1.99219V3.98438H14.4434V1.99219C14.4434 0.891902 13.5515 0 12.4512 0C11.3509 0 10.459 0.891902 10.459 1.99219V3.98438H7.96875C3.57478 3.98438 0 7.55916 0 11.9531V43.0312C0 47.4252 3.57478 51 7.96875 51H23.209C24.3093 51 25.2012 50.1081 25.2012 49.0078C25.2012 47.9075 24.3093 47.0156 23.209 47.0156H7.96875C5.77177 47.0156 3.98438 45.2282 3.98438 43.0312V11.9531C3.98438 9.75614 5.77177 7.96875 7.96875 7.96875H10.459V9.96094C10.459 11.0612 11.3509 11.9531 12.4512 11.9531C13.5515 11.9531 14.4434 11.0612 14.4434 9.96094V7.96875H23.4082V9.96094C23.4082 11.0612 24.3001 11.9531 25.4004 11.9531C26.5007 11.9531 27.3926 11.0612 27.3926 9.96094V7.96875H36.457V9.96094C36.457 11.0612 37.3489 11.9531 38.4492 11.9531C39.5495 11.9531 40.4414 11.0612 40.4414 9.96094V7.96875H43.0312C45.2282 7.96875 47.0156 9.75614 47.0156 11.9531V23.3086C47.0156 24.4089 47.9075 25.3008 49.0078 25.3008C50.1081 25.3008 51 24.4089 51 23.3086V11.9531C51 7.55916 47.4252 3.98438 43.0312 3.98438Z" fill="white"/>
<path d="M38.9473 26.8945C32.3013 26.8945 26.8945 32.3013 26.8945 38.9473C26.8945 45.5932 32.3013 51 38.9473 51C45.5932 51 51 45.5932 51 38.9473C51 32.3013 45.5932 26.8945 38.9473 26.8945ZM38.9473 47.0156C34.4984 47.0156 30.8789 43.3962 30.8789 38.9473C30.8789 34.4983 34.4984 30.8789 38.9473 30.8789C43.3961 30.8789 47.0156 34.4983 47.0156 38.9473C47.0156 43.3962 43.3961 47.0156 38.9473 47.0156Z" fill="white"/>
<path d="M41.8359 36.9551H40.9395V34.8633C40.9395 33.763 40.0476 32.8711 38.9473 32.8711C37.847 32.8711 36.9551 33.763 36.9551 34.8633V38.9473C36.9551 40.0476 37.847 40.9395 38.9473 40.9395H41.8359C42.9362 40.9395 43.8281 40.0476 43.8281 38.9473C43.8281 37.847 42.9362 36.9551 41.8359 36.9551Z" fill="white"/>
<path d="M29.7832 22.9102C30.8835 22.9102 31.7754 22.0182 31.7754 20.918C31.7754 19.8177 30.8835 18.9258 29.7832 18.9258C28.6829 18.9258 27.791 19.8177 27.791 20.918C27.791 22.0182 28.6829 22.9102 29.7832 22.9102Z" fill="white"/>
<path d="M21.1172 31.5762C22.2174 31.5762 23.1094 30.6842 23.1094 29.584C23.1094 28.4837 22.2174 27.5918 21.1172 27.5918C20.0169 27.5918 19.125 28.4837 19.125 29.584C19.125 30.6842 20.0169 31.5762 21.1172 31.5762Z" fill="white"/>
<path d="M12.4512 22.9102C13.5514 22.9102 14.4434 22.0182 14.4434 20.918C14.4434 19.8177 13.5514 18.9258 12.4512 18.9258C11.3509 18.9258 10.459 19.8177 10.459 20.918C10.459 22.0182 11.3509 22.9102 12.4512 22.9102Z" fill="white"/>
<path d="M12.4512 31.5762C13.5514 31.5762 14.4434 30.6842 14.4434 29.584C14.4434 28.4837 13.5514 27.5918 12.4512 27.5918C11.3509 27.5918 10.459 28.4837 10.459 29.584C10.459 30.6842 11.3509 31.5762 12.4512 31.5762Z" fill="white"/>
<path d="M12.4512 40.2422C13.5514 40.2422 14.4434 39.3503 14.4434 38.25C14.4434 37.1497 13.5514 36.2578 12.4512 36.2578C11.3509 36.2578 10.459 37.1497 10.459 38.25C10.459 39.3503 11.3509 40.2422 12.4512 40.2422Z" fill="white"/>
<path d="M21.1172 40.2422C22.2174 40.2422 23.1094 39.3503 23.1094 38.25C23.1094 37.1497 22.2174 36.2578 21.1172 36.2578C20.0169 36.2578 19.125 37.1497 19.125 38.25C19.125 39.3503 20.0169 40.2422 21.1172 40.2422Z" fill="white"/>
<path d="M21.1172 22.9102C22.2174 22.9102 23.1094 22.0182 23.1094 20.918C23.1094 19.8177 22.2174 18.9258 21.1172 18.9258C20.0169 18.9258 19.125 19.8177 19.125 20.918C19.125 22.0182 20.0169 22.9102 21.1172 22.9102Z" fill="white"/>
</svg>
