<svg width="43" height="39" viewBox="0 0 43 39" fill="none" xmlns="http://www.w3.org/2000/svg">
<rect width="43" height="39" rx="8" fill="#4FF08F"/>
<path d="M24.4434 19.0289L19.5674 17.6711C19.003 17.5164 18.6102 17.0137 18.6102 16.4551C18.6102 15.7547 19.2062 15.1875 19.9421 15.1875H22.9355C23.4863 15.1875 24.0281 15.3465 24.4796 15.6387C24.755 15.8148 25.1252 15.7719 25.36 15.5527L26.9311 14.0918C27.2517 13.7953 27.2065 13.3012 26.8499 13.0391C25.7437 12.2141 24.3622 11.7543 22.9445 11.75V9.6875C22.9445 9.30937 22.6194 9 22.2221 9H20.7774C20.3801 9 20.055 9.30937 20.055 9.6875V11.75H19.9421C17.0662 11.75 14.7546 14.1004 15.0209 16.8891C15.2106 18.8699 16.7998 20.4813 18.8044 21.0398L23.4321 22.3289C23.9965 22.4879 24.3893 22.9863 24.3893 23.5449C24.3893 24.2453 23.7933 24.8125 23.0574 24.8125H20.064C19.5132 24.8125 18.9714 24.6535 18.5199 24.3613C18.2445 24.1852 17.8743 24.2281 17.6395 24.4473L16.0684 25.9082C15.7478 26.2047 15.793 26.6988 16.1496 26.9609C17.2558 27.7859 18.6373 28.2457 20.055 28.25V30.3125C20.055 30.6906 20.3801 31 20.7774 31H22.2221C22.6194 31 22.9445 30.6906 22.9445 30.3125V28.2414C25.0484 28.2027 27.0214 27.0125 27.7167 25.1176C28.6874 22.4707 27.0575 19.7551 24.4434 19.0289Z" fill="black"/>
</svg>
