<svg width="23" height="23" viewBox="0 0 23 23" fill="none" xmlns="http://www.w3.org/2000/svg">
<path d="M11.5 0C5.15919 0 0 5.15919 0 11.5C0 17.8408 5.15919 23 11.5 23C17.8408 23 23 17.8408 23 11.5C23 5.15919 17.8408 0 11.5 0ZM11.5 21.5625C5.95125 21.5625 1.4375 17.0487 1.4375 11.5C1.4375 5.95125 5.95125 1.4375 11.5 1.4375C17.0487 1.4375 21.5625 5.95125 21.5625 11.5C21.5625 17.0487 17.0487 21.5625 11.5 21.5625Z" fill="white"/>
<path d="M11.5 10.7812C10.3313 10.7812 9.34375 10.1229 9.34375 9.34375C9.34375 8.56463 10.3313 7.90625 11.5 7.90625C12.1613 7.90625 12.7736 8.11325 13.179 8.47263C13.4751 8.73569 13.9279 8.71125 14.1939 8.41225C14.4584 8.11613 14.4311 7.66187 14.1335 7.39737C13.6304 6.95031 12.9548 6.64844 12.2188 6.52912V5.75C12.2188 5.35325 11.8967 5.03125 11.5 5.03125C11.1033 5.03125 10.7812 5.35325 10.7812 5.75V6.52625C9.1425 6.79362 7.90625 7.95512 7.90625 9.34375C7.90625 10.9293 9.51912 12.2188 11.5 12.2188C12.6687 12.2188 13.6562 12.8771 13.6562 13.6562C13.6562 14.4354 12.6687 15.0938 11.5 15.0938C10.8387 15.0938 10.2264 14.8868 9.821 14.5274C9.52487 14.2629 9.07062 14.2887 8.80612 14.5877C8.54162 14.8839 8.56894 15.3381 8.8665 15.6026C9.36963 16.0511 10.0452 16.3516 10.7812 16.4723V17.25C10.7812 17.6468 11.1033 17.9688 11.5 17.9688C11.8967 17.9688 12.2188 17.6468 12.2188 17.25V16.4738C13.8575 16.2064 15.0938 15.0449 15.0938 13.6562C15.0938 12.0707 13.4809 10.7812 11.5 10.7812Z" fill="white"/>
</svg>
