<svg width="55" height="54" viewBox="0 0 55 54" fill="none" xmlns="http://www.w3.org/2000/svg">
<rect width="55" height="54" rx="8" fill="#0075FF"/>
<path d="M24.3359 40C26.669 40 28.4754 39.7767 29.9243 39.3202C29.8936 39.1554 29.873 38.9869 29.873 38.8135C29.873 38.0385 30.1952 37.339 30.7102 36.8359C30.1952 36.3329 29.873 35.6333 29.873 34.8584C29.873 34.0835 30.1952 33.3839 30.7102 32.8809C30.1952 32.3778 29.873 31.6783 29.873 30.9033C29.873 30.1284 30.1952 29.4288 30.7102 28.9258C30.1952 28.4227 29.873 27.7232 29.873 26.9482C29.873 26.0328 30.325 25.2259 31.012 24.7217C30.5415 24.2909 30.0389 23.9049 29.5115 23.5652C29.7258 23.2954 29.873 22.9689 29.873 22.5977C29.873 21.7238 29.1648 21.0156 28.291 21.0156H20.3809C19.507 21.0156 18.7988 21.7238 18.7988 22.5977C18.7988 22.968 18.9457 23.2935 19.1587 23.5629C16.0877 25.5413 14 29.1237 14 32.8809C14 39.2623 19.9213 40 24.3359 40ZM24.3275 32.3216C23.0188 32.3216 21.9544 31.2572 21.9544 29.9485C21.9544 28.9155 22.6219 28.0439 23.5449 27.7187V26.5527C23.5449 26.1156 23.8988 25.7617 24.3359 25.7617C24.7731 25.7617 25.127 26.1156 25.127 26.5527V27.724C26.0414 28.0538 26.7005 28.9219 26.7005 29.9485C26.7005 30.3859 26.3466 30.7396 25.9095 30.7396C25.4722 30.7396 25.1185 30.3859 25.1185 29.9485C25.1185 29.512 24.7638 29.1575 24.3275 29.1575C23.891 29.1575 23.5365 29.512 23.5365 29.9485C23.5365 30.385 23.891 30.7396 24.3275 30.7396C25.636 30.7396 26.7005 31.8041 26.7005 33.1126C26.7005 34.1393 26.0414 35.0073 25.127 35.3373V36.0449C25.127 36.482 24.7731 36.8359 24.3359 36.8359C23.8988 36.8359 23.5449 36.482 23.5449 36.0449V35.3425C22.6219 35.0174 21.9544 34.1457 21.9544 33.1126C21.9544 32.6755 22.3081 32.3216 22.7455 32.3216C23.1826 32.3216 23.5365 32.6755 23.5365 33.1126C23.5365 33.5491 23.891 33.9036 24.3275 33.9036C24.7638 33.9036 25.1185 33.5491 25.1185 33.1126C25.1185 32.6761 24.7638 32.3216 24.3275 32.3216Z" fill="white"/>
<path d="M39.8135 37.627H32.6416C31.9863 37.627 31.4551 38.1582 31.4551 38.8135C31.4551 39.4687 31.9863 40 32.6416 40H39.8135C40.4687 40 41 39.4687 41 38.8135C41 38.1582 40.4687 37.627 39.8135 37.627Z" fill="white"/>
<path d="M39.8135 33.6719H32.6416C31.9863 33.6719 31.4551 34.2031 31.4551 34.8584C31.4551 35.5137 31.9863 36.0449 32.6416 36.0449H39.8135C40.4687 36.0449 41 35.5137 41 34.8584C41 34.2031 40.4687 33.6719 39.8135 33.6719Z" fill="white"/>
<path d="M39.8135 29.7168H32.6416C31.9863 29.7168 31.4551 30.2481 31.4551 30.9033C31.4551 31.5586 31.9863 32.0898 32.6416 32.0898H39.8135C40.4687 32.0898 41 31.5586 41 30.9033C41 30.2481 40.4687 29.7168 39.8135 29.7168Z" fill="white"/>
<path d="M39.8135 25.7617H32.6416C31.9863 25.7617 31.4551 26.293 31.4551 26.9482C31.4551 27.6035 31.9863 28.1348 32.6416 28.1348H39.8135C40.4687 28.1348 41 27.6035 41 26.9482C41 26.293 40.4687 25.7617 39.8135 25.7617Z" fill="white"/>
<path d="M26.5634 14.582C26.2356 13.6633 25.3659 13 24.3359 13C23.3047 13 22.4249 13.6612 22.098 14.582H19.5899C19.3357 14.582 19.0969 14.704 18.948 14.9104C18.7997 15.1166 18.7587 15.3823 18.8398 15.6233L20.0748 19.4336H28.5973L29.8321 15.6233C29.9132 15.3823 29.8722 15.1166 29.7239 14.9104C29.575 14.704 29.3362 14.582 29.082 14.582H26.5634Z" fill="white"/>
</svg>
