<svg width="16" height="16" viewBox="0 0 16 16" fill="none" xmlns="http://www.w3.org/2000/svg">
<path d="M15.4591 3.15216L10.6112 8.00056L15.4591 12.8487C16.1802 13.5701 16.1802 14.7386 15.4591 15.46C15.0988 15.8203 14.6264 16.0006 14.1543 16.0006C13.6813 16.0006 13.2089 15.8206 12.8489 15.46L7.99991 10.6113L3.15131 15.46C2.79106 15.8203 2.31864 16.0006 1.84608 16.0006C1.37366 16.0006 0.901555 15.8205 0.540981 15.46C-0.180122 14.7389 -0.180122 13.5703 0.540981 12.8487L5.38876 8.00051L0.540705 3.15216C-0.180398 2.43105 -0.180398 1.26225 0.540705 0.541145C1.26167 -0.179405 2.42979 -0.179405 3.15103 0.541145L7.99987 5.38955L12.8483 0.541145C13.5697 -0.179405 14.738 -0.179405 15.4588 0.541145C16.1802 1.26225 16.1802 2.43105 15.4591 3.15216Z" fill="white"/>
</svg>

