<svg width="37" height="37" viewBox="0 0 37 37" fill="none" xmlns="http://www.w3.org/2000/svg">
<path d="M35.916 14.5254H33.5227C33.1684 13.1834 32.6347 11.8995 31.9292 10.6917L33.6255 8.99548C33.8288 8.7922 33.943 8.5165 33.943 8.22896C33.943 7.94141 33.8288 7.66579 33.6255 7.46251L29.5376 3.37459C29.1143 2.95133 28.4279 2.95126 28.0046 3.37459L26.3082 5.07088C25.1004 4.36535 23.8165 3.83167 22.4746 3.47735V1.08398C22.4746 0.485336 21.9893 0 21.3906 0H15.6094C15.0107 0 14.5254 0.485336 14.5254 1.08398V3.47735C13.1835 3.83167 11.8996 4.36535 10.6918 5.07088L8.99548 3.37459C8.57222 2.95133 7.88584 2.95126 7.46251 3.37459L3.37459 7.46251C3.1713 7.66579 3.05705 7.94149 3.05705 8.22896C3.05705 8.51643 3.1713 8.79212 3.37459 8.99548L5.07088 10.6917C4.36528 11.8996 3.83167 13.1834 3.47728 14.5254H1.08398C0.485336 14.5254 0 15.0107 0 15.6094V21.3906C0 21.9893 0.485336 22.4746 1.08398 22.4746H3.47728C3.8316 23.8166 4.36528 25.1004 5.07081 26.3082L3.37452 28.0044C3.17123 28.2077 3.05698 28.4834 3.05698 28.771C3.05698 29.0584 3.17116 29.3341 3.37452 29.5374L7.46244 33.6254C7.66572 33.8287 7.94141 33.9429 8.22889 33.9429C8.51636 33.9429 8.79205 33.8287 8.99534 33.6254L10.6916 31.9291C11.8995 32.6347 13.1833 33.1683 14.5252 33.5227V35.916C14.5252 36.5147 15.0106 37 15.6092 37H21.3905C21.9891 37 22.4745 36.5147 22.4745 35.916V33.5227C23.8164 33.1684 25.1002 32.6347 26.3081 31.9292L28.0044 33.6255C28.2077 33.8288 28.4834 33.943 28.7708 33.943C29.0584 33.943 29.334 33.8288 29.5373 33.6255L33.6252 29.5375C33.8285 29.3342 33.9427 29.0585 33.9427 28.771C33.9427 28.4835 33.8285 28.2079 33.6252 28.0045L31.9289 26.3083C32.6344 25.1005 33.168 23.8167 33.5224 22.4747H35.916C36.5147 22.4747 37 21.9893 37 21.3907V15.6094C37 15.0107 36.5147 14.5254 35.916 14.5254ZM18.5 28.6172C12.9213 28.6172 8.38281 24.0786 8.38281 18.5C8.38281 12.9214 12.9214 8.38281 18.5 8.38281C24.0786 8.38281 28.6172 12.9214 28.6172 18.5C28.6172 24.0786 24.0787 28.6172 18.5 28.6172Z" fill="#37F0D3"/>
<path d="M22.8359 13.0801H19.584V15.248C19.584 15.8467 19.0986 16.332 18.5 16.332C17.9014 16.332 17.416 15.8467 17.416 15.248V13.0801H14.1641C13.5654 13.0801 13.0801 13.5654 13.0801 14.1641V22.8359C13.0801 23.4346 13.5654 23.9199 14.1641 23.9199H22.8359C23.4346 23.9199 23.9199 23.4346 23.9199 22.8359V14.1641C23.9199 13.5654 23.4346 13.0801 22.8359 13.0801Z" fill="#37F0D3"/>
</svg>
