<svg width="35" height="35" viewBox="0 0 35 35" fill="none" xmlns="http://www.w3.org/2000/svg">
<path d="M27.7539 32.9492H26.7285V29.8047C26.7285 29.2383 26.2695 28.7793 25.7031 28.7793H9.29688C8.73051 28.7793 8.27148 29.2383 8.27148 29.8047V32.9492H7.24609C6.67946 32.9492 6.2207 33.408 6.2207 33.9746C6.2207 34.5412 6.67946 35 7.24609 35H27.7539C28.3205 35 28.7793 34.5412 28.7793 33.9746C28.7793 33.408 28.3205 32.9492 27.7539 32.9492Z" fill="#BFCAE1"/>
<path d="M31.9238 0C28.6009 0 7.74143 0 3.07617 0C1.38 0 0 1.38 0 3.07617V4.63829C0 7.16866 0.871048 9.65122 2.45132 11.6278C3.80116 13.3151 5.59959 14.5678 7.65038 15.2516L8.73878 15.6148C10.0013 17.6701 11.9789 19.2544 14.3555 20.0071V21.6016C14.3555 22.1674 13.8948 22.627 13.3301 22.627C11.6339 22.627 10.2539 24.007 10.2539 25.7031V26.7285H24.7461V25.7031C24.7461 24.007 23.3661 22.627 21.6699 22.627C21.1052 22.627 20.6445 22.1674 20.6445 21.6016V20.0071C23.0211 19.2541 24.9987 17.6701 26.2612 15.6148L27.3496 15.2516C29.4004 14.5678 31.1988 13.3151 32.5487 11.6278C34.129 9.65122 35 7.16866 35 4.63829V3.07617C35 1.38 33.62 0 31.9238 0V0ZM4.0535 10.346C2.76161 8.73184 2.05078 6.70509 2.05078 4.63829V3.07617C2.05078 2.51034 2.51141 2.05078 3.07617 2.05078H6.25969L7.30404 11.4425C7.36412 11.9837 7.47414 12.5098 7.61673 13.0235C6.22952 12.4326 5.00038 11.5303 4.0535 10.346ZM22.3087 8.77991L20.6563 10.3522L21.0448 12.5672C21.1129 12.9496 20.9567 13.3381 20.6443 13.5693C20.33 13.7998 19.9134 13.8358 19.5668 13.6564L17.5 12.5949L15.4332 13.6564C15.0869 13.8342 14.6687 13.8006 14.3557 13.5693C14.0433 13.3392 13.8871 12.9506 13.9552 12.5672L14.3437 10.3522L12.6916 8.77991C12.4072 8.50861 12.3031 8.09898 12.4211 7.72461C12.5413 7.34997 12.8657 7.07653 13.2542 7.02152L15.5595 6.69415L16.5849 4.66446C16.9334 3.97366 18.0669 3.97366 18.4154 4.66446L19.4408 6.69415L21.7458 7.02152C22.1346 7.0768 22.4587 7.34997 22.5792 7.72461C22.6969 8.09898 22.593 8.50861 22.3087 8.77991ZM32.9492 4.63829C32.9492 6.70509 32.2384 8.73184 30.9465 10.346C29.9996 11.5303 28.7705 12.4326 27.3833 13.0235C27.5259 12.5098 27.6359 11.9837 27.696 11.4425L28.7403 2.05078H31.9238C32.4886 2.05078 32.9492 2.51034 32.9492 3.07617V4.63829Z" fill="#BFCAE1"/>
<path d="M17.8525 8.09707L17.5 7.40039L17.1475 8.09707C16.9953 8.39668 16.7091 8.60282 16.3766 8.64982L15.6396 8.75396L16.1563 9.24556C16.4047 9.48295 16.5187 9.82848 16.4586 10.166L16.3326 10.8899L17.0314 10.5305C17.3278 10.3802 17.6762 10.3802 17.9686 10.5305L18.6677 10.8899L18.5414 10.166C18.4813 9.82848 18.5956 9.48295 18.844 9.24556L19.3607 8.75396L18.6237 8.64982C18.2909 8.60282 18.0047 8.39668 17.8525 8.09707Z" fill="#BFCAE1"/>
</svg>
