<svg width="63" height="63" viewBox="0 0 63 63" fill="none" xmlns="http://www.w3.org/2000/svg">
<rect width="63" height="63" rx="16" fill="#FFDC14"/>
<path d="M47.8109 27.8664C47.3095 26.3233 45.9436 25.3261 44.3311 25.3261H37.5375C37.0871 25.3261 36.7118 25.0668 36.5822 24.6678L34.4821 18.1625C33.9827 16.6256 32.616 15.6327 31.0001 15.6327C29.3843 15.6327 28.0175 16.6256 27.5174 18.1649L25.4188 24.6654C25.2884 25.0668 24.9131 25.3261 24.4626 25.3261H17.6689C16.0565 25.3261 14.6905 26.3232 14.1891 27.8664C13.6858 29.4155 14.207 31.0315 15.517 31.9832L21.0132 35.9765C21.3666 36.2332 21.5135 36.685 21.3784 37.1005L19.279 43.5616C18.7796 45.0984 19.3017 46.7051 20.609 47.6549C21.2626 48.1298 22.0118 48.3672 22.7609 48.3672C23.5101 48.3672 24.2593 48.1298 24.9129 47.6549L30.4091 43.6616C30.7625 43.4049 31.2375 43.4047 31.5909 43.6617L37.0871 47.6549C38.3944 48.6046 40.0838 48.6048 41.391 47.6549C42.6982 46.7052 43.2203 45.0984 42.721 43.5616L41.2838 39.1384C41.0572 38.4409 40.308 38.0592 39.6106 38.2858C38.9131 38.5125 38.5314 39.2615 38.758 39.9591L40.1951 44.3822C40.4046 45.0269 39.9686 45.4056 39.8299 45.5064C39.6912 45.607 39.1963 45.9048 38.6481 45.5063L33.1519 41.5132C31.8648 40.578 30.1352 40.5779 28.848 41.5131L23.3518 45.5063C22.8035 45.9047 22.3085 45.607 22.1699 45.5064C22.0313 45.4056 21.5953 45.0269 21.8047 44.3822L23.9041 37.9211C24.3958 36.408 23.8613 34.763 22.5742 33.8279L17.0779 29.8346C16.5254 29.4333 16.6603 28.8548 16.7148 28.6871C16.7686 28.5216 16.9962 27.9819 17.6689 27.9819H24.4625C26.0601 27.9819 27.4593 26.979 27.9452 25.4838L30.0438 18.9833C30.2533 18.3386 30.8287 18.2885 31 18.2885C31.1713 18.2885 31.7467 18.3386 31.9554 18.9809L34.0555 25.4861C34.5406 26.979 35.9398 27.9819 37.5375 27.9819H44.331C45.0037 27.9819 45.2313 28.5216 45.2851 28.6871C45.3396 28.8548 45.4745 29.4333 44.922 29.8346L41.1744 32.5575C40.5811 32.9887 40.4495 33.8189 40.8806 34.4123C41.3117 35.0056 42.142 35.137 42.7354 34.7061L46.4831 31.9833C47.7931 31.0315 48.3143 29.4155 47.8109 27.8664Z" fill="#0F1B35"/>
</svg>
