<svg width="21" height="21" viewBox="0 0 21 21" fill="none" xmlns="http://www.w3.org/2000/svg">
<path d="M20.8163 6.10677L15.1288 0.200584C14.9433 0.00816491 14.6589 -0.0522364 14.4114 0.0474177C14.1629 0.148033 14.0001 0.388677 14.0001 0.656397V3.50022H13.7814C9.07748 3.50022 5.25024 7.32745 5.25024 12.0314V13.3439C5.25024 13.6483 5.46461 13.9021 5.76117 13.9713C5.8094 13.9834 5.85746 13.9887 5.90553 13.9887C6.15322 13.9887 6.39034 13.8434 6.50489 13.6151C7.73519 11.1537 10.2088 9.6251 12.9606 9.6251H14.0001V12.4688C14.0001 12.7366 14.1629 12.9773 14.4114 13.0769C14.6573 13.1776 14.9433 13.1164 15.1288 12.9238L20.8163 7.01759C21.0613 6.76301 21.0613 6.36231 20.8163 6.10677Z" fill="white"/>
<path d="M18.3751 20.9997H2.62528C1.17805 20.9997 0.000305176 19.8221 0.000305176 18.3747V6.12497C0.000305176 4.67774 1.17805 3.5 2.62528 3.5H5.25025C5.7341 3.5 6.12519 3.89109 6.12519 4.37494C6.12519 4.85879 5.7341 5.24987 5.25025 5.24987H2.62528C2.14223 5.24987 1.75018 5.64192 1.75018 6.12497V18.3747C1.75018 18.8578 2.14223 19.2498 2.62528 19.2498H18.3751C18.858 19.2498 19.2501 18.8578 19.2501 18.3747V11.3749C19.2501 10.8911 19.6411 10.4998 20.125 10.4998C20.609 10.4998 21.0001 10.8911 21.0001 11.3749V18.3747C21.0001 19.8221 19.8223 20.9997 18.3751 20.9997Z" fill="white"/>
</svg>
