<svg width="35" height="31" viewBox="0 0 35 31" fill="none" xmlns="http://www.w3.org/2000/svg">
<path d="M34.0341 7.1879L18.7795 0.28223C17.9482 -0.0940766 17.0514 -0.0940766 16.2206 0.28223L0.965512 7.1879C-0.321837 7.77049 -0.321837 10.2789 0.965512 10.8615L3.62498 12.0654C3.04146 13.1282 2.68271 14.4247 2.64716 15.8446C2.12052 16.2894 1.74973 17.0919 1.74973 18.05C1.74973 18.9187 2.06036 19.6495 2.50771 20.1169L1.11153 29.3739C0.990121 30.1789 1.40575 30.9427 1.9652 30.9427H5.03373C5.59373 30.9427 6.00936 30.1789 5.88795 29.3739L4.49178 20.1169C4.93912 19.6495 5.24975 18.9187 5.24975 18.05C5.24975 17.1177 4.89592 16.3377 4.39334 15.8848C4.4349 14.6745 4.8549 13.6044 5.52483 12.926L16.2201 17.768C16.7156 17.992 17.666 18.2716 18.7789 17.768L34.0341 10.8623C35.322 10.2789 35.322 7.77129 34.0341 7.1879ZM19.293 20.2329C17.7328 20.9388 16.4033 20.5488 15.706 20.2329L7.77522 16.6431L6.99975 25.7857C6.99975 28.6341 11.7007 30.9427 17.4998 30.9427C23.2989 30.9427 27.9998 28.6341 27.9998 25.7857L27.2244 16.6423L19.293 20.2329Z" fill="white"/>
</svg>
